<?xml version="1.0" encoding="utf-8"?>
<!-- Generator: Adobe Illustrator 27.3.0, SVG Export Plug-In . SVG Version: 6.00 Build 0)  -->
<svg version="1.1" id="Layer_2_00000093856038591910185420000016029033429264779432_"
	 xmlns="http://www.w3.org/2000/svg" xmlns:xlink="http://www.w3.org/1999/xlink" x="0px" y="0px" viewBox="0 0 1860 525.2"
	 style="enable-background:new 0 0 1860 525.2;" xml:space="preserve">
<style type="text/css">
	.st0{clip-path:url(#SVGID_00000065763624089554493150000004447373061811067293_);}
	.st1{fill:#F42C00;}
</style>
<g id="Layer_1-2">
	<g>
		<defs>
			<rect id="SVGID_1_" width="1860" height="525.2"/>
		</defs>
		<clipPath id="SVGID_00000099652382884500527310000014818734870148203185_">
			<use xlink:href="#SVGID_1_"  style="overflow:visible;"/>
		</clipPath>
		<g style="clip-path:url(#SVGID_00000099652382884500527310000014818734870148203185_);">
			<path class="st1" d="M1767.2,5.2v214.2h-74.7V5.2h-92.8v514.7h92.8V305.8h74.7v214.2h92.8V5.2H1767.2z"/>
			<path class="st1" d="M101.2,5.2H0v514.7h92.8V325c106-1.1,162.3-54.9,162.3-159.9C255,107.6,236.2,5.2,101.2,5.2L101.2,5.2
				L101.2,5.2z M99,238.6h-6.3V91.6H106c40.1,0,57.1,21.3,57.1,75.8C163.2,202.7,158.1,238.6,99,238.6L99,238.6z"/>
			<path class="st1" d="M1097.9,520h205.6v-86.4h-112.9V305.8h79.5v-86.2h-79.5v-128h112.9V5.2h-205.6V520L1097.9,520z"/>
			<path class="st1" d="M811.5,91.9H896l0.1,428h92.5v-428h84.7V5.2H811.5L811.5,91.9L811.5,91.9z"/>
			<path class="st1" d="M301.8,5.2l-56,514.7h92.7l11.9-114.6h67.9l11.9,114.6h92.7l-56-514.7H301.8z M360.1,318.9l18.6-216.6h11.2
				l18.6,216.6H360.1z"/>
			<path class="st1" d="M726.2,298.3c50.5-20.9,76.8-64.8,76.8-136.6c0-57.5-18.9-156.5-153.8-156.5H548v514.7h92.8V340.5
				c54.8,23.6,81.5,97.3,81.5,179.4h91.8C814.1,442.1,788.9,340.7,726.2,298.3L726.2,298.3L726.2,298.3z M640.8,91.6h13.3
				c40.1,0,57.1,26.4,57.1,80.9c0,35.3-5.1,76.3-64.2,76.3h-6.3L640.8,91.6L640.8,91.6z"/>
			<path class="st1" d="M1572.4,225c0-54.8,15.8-225-120.7-225c-129.3,0-135.4,136-135.4,262.6s6.1,262.6,135.4,262.6
				c136.4,0,120.7-170.2,120.7-225h-89.9c0,55.2,5.1,141.6-34.3,141.6s-35.5-83-35.5-179.1s-1.9-179.1,35.5-179.1
				c39.4,0,34.3,86.4,34.3,141.6L1572.4,225L1572.4,225z"/>
		</g>
	</g>
</g>
</svg>
