<svg enable-background="new 35 30 150 21" height="21" viewBox="35 30 150 21" width="150" xmlns="http://www.w3.org/2000/svg"><g transform="translate(.75 .2255)"><g fill="#3c3c3c"><path d="m87.5 50.1-1.9-3.3c.9-1.7.9-3.7.9-6.3 0-3.3 0-5.7-1.9-7.7-1.3-1.4-3-2.1-5.2-2.1s-3.9.8-5.2 2.1c-1.9 1.9-1.9 4.3-1.9 7.7 0 3.3-.1 5.7 1.9 7.7 1.4 1.4 3 2.1 5.2 2.1.6 0 1.1-.1 1.6-.2zm-10.6-4.2c-.7-.8-.9-1.7-.9-5.4s.2-4.6.9-5.4c.5-.6 1.4-1 2.4-1s1.9.4 2.4 1c.7.8.9 1.7.9 5.4s-.2 4.6-.9 5.4c-.5.6-1.4 1-2.4 1s-1.9-.4-2.4-1z"/><path d="m131.4 30.9h3.7v19.2h-3.7z"/><path d="m42 50.3c-2.9 0-5.1-.6-7-2.5l2.4-2.4c1.2 1.2 2.9 1.6 4.6 1.6 2.2 0 3.4-.8 3.4-2.4 0-.7-.2-1.2-.6-1.6s-.8-.5-1.7-.7l-2.3-.3c-1.6-.2-2.9-.8-3.7-1.6-.9-.9-1.4-2.2-1.4-3.8 0-3.4 2.5-5.8 6.7-5.8 2.6 0 4.6.6 6.2 2.2l-2.4 2.3c-1.2-1.2-2.7-1.3-3.9-1.3-2 0-3 1.1-3 2.4 0 .5.2 1 .6 1.4s1 .6 1.8.8l2.3.3c1.8.2 2.9.7 3.7 1.5 1 1 1.5 2.4 1.5 4.1 0 3.7-3.2 5.8-7.2 5.8"/><path d="m54.6 50.1v-19.2h12.7v3.3h-8.9v4.5h7.6v3.4h-7.6v4.7h8.9v3.3z"/><path d="m99.2 50.3c-3.9 0-7.1-2.7-7.1-6.8v-12.6h3.8v12.5c0 2.2 1.3 3.5 3.3 3.5s3.3-1.3 3.3-3.5v-12.5h3.7v12.6c0 4.1-3.1 6.8-7 6.8"/><path d="m124 48.2c-1.3 1.4-3 2.1-5.2 2.1s-3.9-.8-5.2-2.1c-1.9-1.9-1.9-4.3-1.9-7.7 0-3.3-.1-5.7 1.9-7.7 1.3-1.4 3-2.1 5.2-2.1s3.8.8 5.2 2.1c1.9 1.9 1.9 4.3 1.9 7.7 0 3.3 0 5.7-1.9 7.7m-2.8-13.1c-.5-.6-1.4-1-2.4-1s-1.9.4-2.4 1c-.7.8-.9 1.7-.9 5.4s.2 4.6.9 5.4c.5.6 1.4 1 2.4 1s1.9-.4 2.4-1c.7-.8.9-1.7.9-5.4s-.2-4.6-.9-5.4"/><path d="m152.8 50.1-1.1-3.4h-6.8l-1.2 3.4h-3.9l7-19.2h2.9l7 19.2zm-4.5-13.6-2.4 7h4.8z"/></g><path d="m178.7 30.9h4.8v4.8h-4.8z" fill="#50b848"/><path d="m166.7 46v-15.1h-2.4v17.5z" fill="#50b848"/><path d="m168.4 47.7-2.4 2.4h17.5v-2.4z" fill="#50b848"/><path d="m171.5 41.2v-10.3h-2.4v12.7z" fill="#50b848"/><path d="m173.2 42.9-2.4 2.4h12.7v-2.4z" fill="#50b848"/><path d="m176.3 36.4v-5.5h-2.4v7.9z" fill="#50b848"/><path d="m178 38.1-2.4 2.4h7.9v-2.4z" fill="#50b848"/></g></svg>